<svg width="64" height="64" xmlns="http://www.w3.org/2000/svg">

 <g>
  <title>background</title>
  <rect fill="none" id="canvas_background" height="402" width="582" y="-1" x="-1"/>
 </g>
 <g>
  <title>Layer 1</title>
  <rect stroke="#ff9d0a" id="svg_3" y="55" x="36.5" width="8.1" transform="matrix(0.124,-0.9923,0.9923,0.124,-20.091,89.2413) " height="2" fill="#fff"/>
  <path stroke="#ff9d0a" id="svg_5" fill="#fff" d="m51,19l-38,0c-1.9,0 -3,-1.1 -3,-3l0,-4c0,-1.9 1.1,-3 3,-3l2.2,0l0.8,-4.1c0,-2.4 1.5,-3.9 4,-3.9l24,0c2.4,0 4,1.5 4,3.9l0.8,4.1l2.2,0c1.9,0 3,1.1 3,3l0,4c0,1.9 -1.1,3 -3,3zm-38,-8c-0.8,0 -1,0.2 -1,1l0,4c0,0.8 0.2,1 1,1l38,0c0.8,0 1,-0.2 1,-1l0,-4c0,-0.8 -0.2,-1 -1,-1l-3.8,0l-1.2,-6c0,-1.3 -0.7,-2 -2,-2l-24,0c-1.4,0 -2,0.6 -2,2l0,0.2l-1.2,5.8l-3.8,0z"/>
  <rect stroke="#ff9d0a" id="svg_7" y="9" x="27" width="17" height="2" fill="#fff"/>
  <rect stroke="#ff9d0a" id="svg_9" y="9" x="23" width="2" height="2" fill="#fff"/>
  <rect stroke="#ff9d0a" id="svg_11" y="9" x="19" width="2" height="2" fill="#fff"/>
  <rect stroke="#ff9d0a" id="svg_14" y="23" x="42.9" width="12.2" transform="matrix(0.1646,-0.9864,0.9864,0.1646,17.2639,68.3826) " height="2" fill="#fff"/>
  <path stroke="#ff9d0a" id="svg_16" fill="#fff" d="m43,63l-22,0c-1.3,0 -2,-1 -2,-1.9l-2,-13.9l2,-0.3l2,14.1l22,0l0,-0.1l2,-14l2,0.3l-2,13.9c0,0.9 -0.7,1.9 -2,1.9z"/>
  <rect stroke="#ff9d0a" id="svg_18" y="18" x="14.2" width="2" transform="matrix(0.9904,-0.1382,0.1382,0.9904,-3.1821,2.3281) " height="12.1" fill="#fff"/>
  <path stroke="#ff9d0a" id="svg_20" fill="#fff" d="m46,48l-28,0c-1,0 -1.9,-0.8 -2,-1.9l-2,-15c0,-0.3 -0.1,-1 0.4,-1.5c0.3,-0.3 0.7,-0.6 1.6,-0.6l32,0c0.8,0 1.3,0.3 1.6,0.6c0.3,0.4 0.5,0.9 0.4,1.5l-2,15c-0.1,1.1 -1,1.9 -2,1.9zm-30,-17l2,14.9c0,0.1 0,0.1 0.1,0.1l27.9,0c0,0 0,-0.1 0,-0.1l2,-14.9l-32,0z"/>
  <path stroke="#ff9d0a" id="svg_22" fill="#fff" d="m32,45c-3.3,0 -6,-2.7 -6,-6s2.7,-6 6,-6s6,2.7 6,6s-2.7,6 -6,6zm0,-10c-2.2,0 -4,1.8 -4,4s1.8,4 4,4c2.2,0 4,-1.8 4,-4s-1.8,-4 -4,-4z"/>
 </g>
</svg>